# AST/ASF file generated using VICON BodyLanguage
# -----------------------------------------------
:version 1.10
:name VICON
:units
  mass 1.0
  length 0.45
  angle deg
:documentation
   .ast/.asf automatically generated from VICON data using
   VICON BodyBuilder and BodyLanguage model FoxedUp or BRILLIANT.MOD
:root
   order TX TY TZ RX RY RZ
   axis XYZ
   position 0 0 0  
   orientation 0 0 0 
:bonedata
  begin
     id 1 
     name lhipjoint
     direction 0.535335 -0.74333 0.401095 
     length 2.04549 
     axis 0 0 0  XYZ
  end
  begin
     id 2 
     name lfemur
     direction 0.34202 -0.939693 0  
     length 6.95643  
     axis 0 0 20  XYZ
    dof rx ry rz
    limits (-160.0 20.0)
           (-70.0 70.0)
           (-60.0 70.0)
  end
  begin
     id 3 
     name ltibia
     direction 0.34192 -0.939729 0   
     length 5.55969   
     axis 0 0 20   XYZ
    dof rx
    limits (-10.0 170.0)
  end
  begin
     id 4 
     name lfoot
     direction 0.216943 -0.596046 0.773088   
     length 2.27918   
     axis -90 7.62852e-016 20   XYZ
    dof rx rz
    limits (-45.0 90.0)
           (-70.0 20.0)
  end
  begin
     id 5 
     name ltoes
     direction 1.53519e-011 -4.21748e-011 1   
     length 1.05562   
     axis -90 7.62852e-016 20   XYZ
    dof rx
    limits (-90.0 20.0)
  end
  begin
     id 6 
     name rhipjoint
     direction -0.576368 -0.719173 0.38806   
     length 2.1142  
     axis 0 0 0  XYZ 
  end
  begin
     id 7 
     name rfemur
     direction -0.34202 -0.939693 0   
     length 7.07928   
     axis 0 0 -20   XYZ
    dof rx ry rz
    limits (-160.0 20.0)
           (-70.0 70.0)
           (-70.0 60.0)
  end
  begin
     id 8 
     name rtibia
     direction -0.34202 -0.939693 0   
     length 5.79974   
     axis 0 0 -20   XYZ
    dof rx
    limits (-10.0 170.0)
 end
 begin
     id 9 
     name rfoot
     direction -0.189288 -0.520065 0.832888   
     length 2.42173  
     axis -90 -7.62852e-016 -20   XYZ
    dof rx rz
    limits (-45.0 90.0)
           (-20.0 70.0)
  end
  begin
     id 10 
     name rtoes
     direction -1.53574e-011 -4.21658e-011 1   
     length 1.14469   
     axis -90 -7.62852e-016 -20   XYZ
    dof rx
    limits (-90.0 20.0)
  end
  begin
     id 11 
     name lowerback
     direction -0.00135702 0.993803 0.111144   
     length 1.91308   
     axis 0 0 0   XYZ
    dof rx ry rz
    limits (-20.0 45.0)
           (-30.0 30.0)
           (-30.0 30.0)
  end
  begin
     id 12 
     name upperback
     direction -0.0056745 0.999813 0.0184631   
     length 1.9212   
     axis 0 0 0   XYZ
    dof rx ry rz
    limits (-20.0 45.0)
           (-30.0 30.0)
           (-30.0 30.0)
  end
  begin
     id 13 
     name thorax
     direction -0.00733434 0.999426 -0.0330788   
     length 1.94196   
     axis 0 0 0   XYZ
    dof rx ry rz
    limits (-20.0 45.0)
           (-30.0 30.0)
           (-30.0 30.0)
  end
  begin
     id 14 
     name lowerneck
     direction 0.0563074 0.996944 -0.0541571   
     length 2.34257   
     axis 0 0 0   XYZ
    dof rx ry rz
    limits (-20.0 45.0)
           (-30.0 30.0)
           (-30.0 30.0)
  end
  begin
     id 15 
     name upperneck
     direction -0.0544519 0.976166 -0.210085   
     length 2.32506   
     axis 0 0 0   XYZ
    dof rx ry rz
    limits (-20.0 45.0)
           (-30.0 30.0)
           (-30.0 30.0)
  end
  begin
     id 16
     name head
     direction -0.0226035 0.997615 -0.0652205  
     length 2.3648  
     axis 0 0 0   XYZ
    dof rx ry rz
    limits (-20.0 45.0)
           (-30.0 30.0)
           (-30.0 30.0)
  end
  begin
     id 17 
     name lclavicle
     direction 0.92109 0.381297 -0.0787716  
     length 4.0487  
     axis 0 0 0   XYZ
    dof ry rz
    limits (-20.0 10.0)
           (0.0 20.0)
  end
  begin
     id 18 
     name lhumerus
     direction 1 -4.48986e-011 3.56724e-027   
     length 4.94991   
     axis 180 -30 -90   XYZ
    dof rx ry rz
    limits (-60.0 90.0)
           (-90.0 90.0)
           (-90.0 90.0)
  end
  begin
     id 19
     name lradius
     direction 1 -4.48981e-011 8.62147e-027   
     length 2.7606   
     axis 180 -30 -90   XYZ
    dof rx
    limits (-10.0 170.0)
  end
  begin
     id 20
     name lwrist
     direction 1 -4.48989e-011 1.59799e-026   
     length 1.3803   
     axis -1.17785e-014 90 90   XYZ
    dof ry
    limits (-180.0 0.0)
 end
  begin
     id 21 
     name lhand
     direction 1 -4.48896e-011 3.19599e-026   
     length 0.843936   
     axis -2.03931e-014 90 90   XYZ
    dof rx rz
    limits (-90.0 90.0)
           (-45.0 45.0)
  end
  begin
     id 22 
     name lfingers
     direction 1 -4.48887e-011 6.39197e-026   
     length 0.680403   
     axis -4.07862e-014 90 90   XYZ
    dof rx
    limits (0.0 90.0)
  end
  begin
     id 23
     name lthumb
     direction 0.707107 -6.348e-011 0.707107   
     length 0.976926   
     axis -90 45 2.85299e-015   XYZ
    dof rx rz
    limits (-45.0 45.0)
           (-45.0 45.0)
  end
  begin
     id 24 
     name rclavicle
     direction -0.951104 0.307692 -0.026953   
     length 4.21801  
     axis 0 0 0   XYZ 
    dof ry rz
    limits (-10.0 20.0)
           (-20.0 0.0)
  end
  begin
     id 25 
     name rhumerus
     direction -1 -4.4896e-011 -1.8171e-018  
     length 4.32982   
     axis 180 30 90   XYZ
    dof rx ry rz
    limits (-90.0 60.0)
           (-90.0 90.0)
           (-90.0 90.0)
  end
  begin
     id 26 
     name rradius
     direction -1 -4.48959e-011 8.25165e-027   
     length 3.20057   
     axis 180 30 90   XYZ
    dof rx
    limits (-10.0 170.0)
  end
  begin
     id 27 
     name rwrist
     direction -1 -4.48997e-011 1.59799e-026   
     length 1.60029   
     axis -1.17785e-014 -90 -90   XYZ
    dof ry
    limits (-180.0 0.0)
  end
  begin
     id 28
     name rhand
     direction -1 -4.49023e-011 3.19599e-026   
     length 0.960433   
     axis -2.03931e-014 -90 -90   XYZ
    dof rx rz
    limits (-90.0 90.0)
           (-45.0 45.0)
  end
  begin
     id 29
     name rfingers
     direction -1 -4.48802e-011 6.39197e-026   
     length 0.774326   
     axis -4.07862e-014 -90 -90   XYZ
    dof rx
    limits (0.0 90.0)
  end
  begin
     id 30
     name rthumb
     direction -0.707107 -6.34876e-011 0.707107   
     length 1.11178   
     axis -90 -45 -2.85299e-015   XYZ
    dof rx rz
    limits (-45.0 45.0)
           (-45.0 45.0)
  end
:hierarchy
  begin
    root lhipjoint rhipjoint lowerback
    lhipjoint lfemur
    lfemur ltibia
    ltibia lfoot
    lfoot ltoes
    rhipjoint rfemur
    rfemur rtibia
    rtibia rfoot
    rfoot rtoes
    lowerback upperback
    upperback thorax
    thorax lowerneck lclavicle rclavicle
    lowerneck upperneck
    upperneck head
    lclavicle lhumerus
    lhumerus lradius
    lradius lwrist
    lwrist lhand lthumb
    lhand lfingers
    rclavicle rhumerus
    rhumerus rradius
    rradius rwrist
    rwrist rhand rthumb
    rhand rfingers
end

#!OML:ASF C:\KaitlinTest1\Natural Motions\Nikki\Session 2\Nikki.ASF
:FULLY-SPECIFIED
:DEGREES
658
root -18.8413 16.6286 5.05541 -153.303 85.8014 -163.348
lowerback -13.5605 -1.63229 -0.0672156
upperback -3.98491 -1.94283 -0.57426
thorax 3.38526 -0.886216 -0.871025
lowerneck -1.82218 1.60352 8.50554
upperneck 27.168 3.86933 -5.6745
head 9.03264 2.54231 -3.03948
rclavicle 5.36719e-015 -7.15625e-015
rhumerus -42.5612 -21.972 -79.5254
rradius 18.4304
rwrist 28.961
rhand -35.8375 2.92766
rfingers 7.12502
rthumb -8.95302 -26.8624
lclavicle 5.36719e-015 -7.15625e-015
lhumerus -42.2957 16.266 80.3026
lradius 23.9138
lwrist -39.8182
lhand -33.0346 3.60206
lfingers 7.12502
lthumb -6.24762 33.4899
rfemur -7.64337 -16.8621 21.1055
rtibia 11.0177
rfoot -10.7777 12.1019
rtoes -6.44062e-014
lfemur -9.95029 12.0651 -17.8144
ltibia 9.86141
lfoot -2.36025 -16.7401
ltoes -7.31528e-014
659
root -18.8429 16.6287 5.05697 -153.292 85.7815 -163.33
lowerback -13.5357 -1.64004 -0.0810049
upperback -3.98127 -1.95276 -0.554296
thorax 3.37668 -0.891393 -0.843378
lowerneck -1.82501 1.60992 8.47492
upperneck 27.1593 3.88229 -5.6812
head 9.0305 2.5444 -3.03529
rclavicle -3.77691e-015 3.97569e-016
rhumerus -42.5642 -22.0175 -79.4552
rradius 18.3978
rwrist 29.0988
rhand -35.8833 3.02548
rfingers 7.12502
rthumb -8.99716 -26.7627
lclavicle -3.77691e-015 3.97569e-016
lhumerus -42.2844 16.2506 80.3401
lradius 23.9273
lwrist -39.8165
lhand -33.0176 3.60609
lfingers 7.12502
lthumb -6.23122 33.4944
rfemur -7.63281 -16.7832 21.1226
rtibia 10.9935
rfoot -10.7278 12.0005
rtoes -4.77083e-014
lfemur -9.96118 12.049 -17.7958
ltibia 9.88062
lfoot -2.33632 -16.7245
ltoes -7.95139e-015
660
root -18.8416 16.6277 5.05586 -153.77 85.8096 -163.804
lowerback -13.5633 -1.63235 -0.0930151
upperback -3.96755 -1.93976 -0.582886
thorax 3.40557 -0.884974 -0.865417
lowerneck -1.86294 1.60602 8.50729
upperneck 27.1866 3.87505 -5.69553
head 9.04753 2.5426 -3.04647
rclavicle -1.79155e-014 -1.15295e-014
rhumerus -42.5386 -21.9006 -79.5882
rradius 18.4677
rwrist 28.899
rhand -35.824 2.87614
rfingers 7.12502
rthumb -8.93993 -26.9145
lclavicle -1.79155e-014 -1.15295e-014
lhumerus -42.2631 16.2583 80.3203
lradius 23.9327
lwrist -39.7632
lhand -33.0368 3.56737
lfingers 7.12502
lthumb -6.24973 33.4552
rfemur -7.62772 -16.8353 21.0669
rtibia 11.0159
rfoot -10.7924 12.0705
rtoes -8.0309e-014
lfemur -9.93485 12.0564 -17.85
ltibia 9.85546
lfoot -2.33167 -16.7217
ltoes -3.97569e-014
661
root -18.8408 16.6283 5.05538 -153.329 85.8075 -163.361
lowerback -13.5542 -1.62754 -0.0575629
upperback -3.97113 -1.93877 -0.571747
thorax 3.39612 -0.884471 -0.873268
lowerneck -1.8683 1.61774 8.51666
upperneck 27.172 3.88835 -5.6963
head 9.04473 2.54891 -3.04703
rclavicle 1.14798e-014 -2.38542e-015
rhumerus -42.5555 -22.0354 -79.481
rradius 18.4085
rwrist 29.1437
rhand -35.8653 2.98959
rfingers 7.12502
rthumb -8.97979 -26.7993
lclavicle 1.14798e-014 -2.38542e-015
lhumerus -42.2899 16.3161 80.2856
lradius 23.9468
lwrist -39.8869
lhand -33.011 3.55939
lfingers 7.12502
lthumb -6.22478 33.4479
rfemur -7.62543 -16.8648 21.0946
rtibia 11.0309
rfoot -10.8057 12.1151
rtoes 7.4743e-014
lfemur -9.92107 12.069 -17.8189
ltibia 9.85201
lfoot -2.34559 -16.7179
ltoes 5.08889e-014
662
root -18.8419 16.6276 5.05675 -153.673 85.8044 -163.707
lowerback -13.4853 -1.63536 -0.10195
upperback -4.0125 -1.94218 -0.575751
thorax 3.3168 -0.88606 -0.850197
lowerneck -1.82064 1.60659 8.52436
upperneck 27.1747 3.88026 -5.70291
head 9.03638 2.54718 -3.05177
rclavicle 1.48343e-014 5.96354e-015
rhumerus -42.6404 -22.0108 -79.4468
rradius 18.4333
rwrist 29.1682
rhand -35.8428 3.01358
rfingers 7.12502
rthumb -8.95815 -26.7762
lclavicle 1.48343e-014 5.96354e-015
lhumerus -42.3601 16.3307 80.2452
lradius 23.9485
lwrist -39.954
lhand -33.0129 3.55387
lfingers 7.12502
lthumb -6.22669 33.4424
rfemur -7.63042 -16.8276 21.0735
rtibia 11.0225
rfoot -10.7538 12.0598
rtoes -6.2816e-014
lfemur -9.93098 12.0552 -17.8391
ltibia 9.85876
lfoot -2.33975 -16.715
ltoes -1.90833e-014
663
root -18.8425 16.6276 5.057 -153.556 85.8046 -163.59
lowerback -13.5038 -1.63124 -0.0826418
upperback -3.99263 -1.93968 -0.581242
thorax 3.34681 -0.884988 -0.867317
lowerneck -1.83845 1.6194 8.50333
upperneck 27.15 3.88422 -5.65944
head 9.03041 2.54927 -3.03223
rclavicle 2.17172e-014 1.70955e-014
rhumerus -42.5855 -21.8812 -79.5902
rradius 18.486
rwrist 28.8781
rhand -35.8081 2.94641
rfingers 7.12502
rthumb -8.92461 -26.8448
lclavicle 2.17172e-014 1.70955e-014
lhumerus -42.3109 16.2625 80.2875
lradius 23.9328
lwrist -39.8758
lhand -33.0251 3.54486
lfingers 7.12502
lthumb -6.23847 33.433
rfemur -7.62349 -16.8192 21.0898
rtibia 10.9974
rfoot -10.7414 12.0505
rtoes 4.21423e-014
lfemur -9.94451 12.0597 -17.8284
ltibia 9.87531
lfoot -2.34554 -16.7261
ltoes 5.56597e-014
664
root -18.8405 16.6279 5.05597 -153.584 85.8204 -163.609
lowerback -13.4998 -1.63527 -0.0849268
upperback -4.00089 -1.94454 -0.578666
thorax 3.33606 -0.887313 -0.863845
lowerneck -1.83793 1.62225 8.5262
upperneck 27.179 3.89936 -5.69886
head 9.04273 2.55615 -3.04894
rclavicle 9.64106e-015 2.78299e-015
rhumerus -42.6204 -22.0148 -79.4765
rradius 18.4463
rwrist 29.1163
rhand -35.804 2.99423
rfingers 7.12502
rthumb -8.92064 -26.7972
lclavicle 9.64106e-015 2.78299e-015
lhumerus -42.3421 16.295 80.2745
lradius 23.9396
lwrist -39.8753
lhand -33.0198 3.55419
lfingers 7.12502
lthumb -6.2333 33.4425
rfemur -7.61478 -16.8712 21.0734
rtibia 11.0155
rfoot -10.786 12.1155
rtoes -5.88403e-014
lfemur -9.91197 12.0721 -17.8398
ltibia 9.84638
lfoot -2.33423 -16.7285
ltoes 1.27222e-014
665
root -18.8411 16.6281 5.05613 -153.213 85.8007 -163.268
lowerback -13.5351 -1.6266 -0.051386
upperback -4.00195 -1.93723 -0.571633
thorax 3.35326 -0.883367 -0.875231
lowerneck -1.84261 1.61952 8.5276
upperneck 27.1597 3.89277 -5.69987
head 9.03629 2.55225 -3.04987
rclavicle -1.77167e-014 -2.78299e-015
rhumerus -42.5915 -21.9015 -79.5629
rradius 18.4606
rwrist 28.9147
rhand -35.8375 3.03718
rfingers 7.12502
rthumb -8.95302 -26.7529
lclavicle -1.77167e-014 -2.78299e-015
lhumerus -42.3234 16.3062 80.2773
lradius 23.9187
lwrist -39.8801
lhand -32.997 3.5104
lfingers 7.12502
lthumb -6.21127 33.3993
rfemur -7.64725 -16.8605 21.118
rtibia 10.9955
rfoot -10.7592 12.1131
rtoes -5.56597e-015
lfemur -9.96269 12.0672 -17.8131
ltibia 9.85993
lfoot -2.3303 -16.7305
ltoes -4.92986e-014
666
root -18.8414 16.6284 5.05648 -153.619 85.8199 -163.662
lowerback -13.51 -1.62681 -0.0817146
upperback -4.00448 -1.93303 -0.586702
thorax 3.3376 -0.881469 -0.872421
lowerneck -1.82103 1.62288 8.53495
upperneck 27.1426 3.89698 -5.69741
head 9.02674 2.55525 -3.04994
rclavicle -3.04886e-014 -8.34896e-015
rhumerus -42.6335 -22.039 -79.4721
rradius 18.4308
rwrist 29.1302
rhand -35.8139 2.95542
rfingers 7.12502
rthumb -8.93024 -26.8356
lclavicle -3.04886e-014 -8.34896e-015
lhumerus -42.3268 16.2462 80.2998
lradius 23.9413
lwrist -39.8588
lhand -32.9693 3.55789
lfingers 7.12502
lthumb -6.18458 33.4476
rfemur -7.63306 -16.8264 21.0723
rtibia 10.9934
rfoot -10.7304 12.0817
rtoes -3.81667e-014
lfemur -9.94759 12.0707 -17.8465
ltibia 9.85325
lfoot -2.32602 -16.747
ltoes -2.8625e-014
667
root -18.8417 16.6285 5.05727 -153.449 85.7908 -163.472
lowerback -13.4872 -1.63494 -0.0727271
upperback -3.99758 -1.94614 -0.577089
thorax 3.33232 -0.888227 -0.869021
lowerneck -1.83896 1.62486 8.5592
upperneck 27.1556 3.90165 -5.7185
head 9.03587 2.55775 -3.06108
rclavicle 3.16068e-014 -3.97569e-016
rhumerus -42.6063 -21.9389 -79.5562
rradius 18.4695
rwrist 28.9872
rhand -35.7966 2.90352
rfingers 7.12502
rthumb -8.91353 -26.8882
lclavicle 3.16068e-014 -3.97569e-016
lhumerus -42.33 16.2054 80.3089
lradius 23.9496
lwrist -39.8845
lhand -32.9564 3.57141
lfingers 7.12502
lthumb -6.17209 33.4615
rfemur -7.6183 -16.7974 21.0962
rtibia 11.009
rfoot -10.741 12.0451
rtoes 2.54444e-014
lfemur -9.92094 12.0515 -17.8087
ltibia 9.83963
lfoot -2.2984 -16.7408
ltoes -9.54166e-015
668
root -18.841 16.6279 5.05806 -153.412 85.7915 -163.453
lowerback -13.5117 -1.63485 -0.0772739
upperback -3.99744 -1.94492 -0.578285
thorax 3.34585 -0.887436 -0.86823
lowerneck -1.84626 1.62452 8.55831
upperneck 27.1495 3.89848 -5.71462
head 9.03475 2.55601 -3.05973
rclavicle -1.91082e-014 -9.14409e-015
rhumerus -42.5943 -21.9388 -79.5667
rradius 18.4483
rwrist 28.9979
rhand -35.8423 2.95923
rfingers 7.12502
rthumb -8.95759 -26.8306
lclavicle -1.91082e-014 -9.14409e-015
lhumerus -42.3071 16.252 80.2872
lradius 23.9295
lwrist -39.875
lhand -33.003 3.53481
lfingers 7.12502
lthumb -6.21714 33.4236
rfemur -7.63224 -16.7757 21.108
rtibia 11.0126
rfoot -10.7561 12.0065
rtoes -9.70069e-014
lfemur -9.93338 12.0538 -17.8097
ltibia 9.83823
lfoot -2.30975 -16.7377
ltoes -6.52014e-014
669
root -18.8417 16.6284 5.05768 -153.538 85.799 -163.592
lowerback -13.5184 -1.63789 -0.086684
upperback -4.00588 -1.94744 -0.5727
thorax 3.34118 -0.888506 -0.857544
lowerneck -1.83043 1.62926 8.54133
upperneck 27.1431 3.90776 -5.71179
head 9.02986 2.55928 -3.05507
rclavicle -7.25564e-015 -3.97569e-016
rhumerus -42.5939 -21.9666 -79.5295
rradius 18.4337
rwrist 29.0168
rhand -35.8125 2.99428
rfingers 7.12502
rthumb -8.92883 -26.7968
lclavicle -7.25564e-015 -3.97569e-016
lhumerus -42.3209 16.2431 80.316
lradius 23.9346
lwrist -39.8714
lhand -32.9924 3.54524
lfingers 7.12502
lthumb -6.20688 33.4343
rfemur -7.65176 -16.8123 21.1012
rtibia 11.0102
rfoot -10.7476 12.0466
rtoes -6.36111e-015
lfemur -9.9539 12.0557 -17.8294
ltibia 9.84571
lfoot -2.32687 -16.7229
ltoes 4.45278e-014
670
root -18.8409 16.6286 5.05728 -153.404 85.8047 -163.46
lowerback -13.5505 -1.63344 -0.0626696
upperback -3.98883 -1.94454 -0.583054
thorax 3.37524 -0.887081 -0.882669
lowerneck -1.83594 1.64287 8.56403
upperneck 27.1288 3.9196 -5.70204
head 9.02736 2.56708 -3.0544
rclavicle 3.926e-015 -5.96354e-015
rhumerus -42.5725 -21.9638 -79.5633
rradius 18.4458
rwrist 28.9994
rhand -35.8188 3.04008
rfingers 7.12502
rthumb -8.93492 -26.7507
lclavicle 3.926e-015 -5.96354e-015
lhumerus -42.3068 16.2261 80.3089
lradius 23.9591
lwrist -39.9035
lhand -32.91 3.57975
lfingers 7.12502
lthumb -6.12733 33.4711
rfemur -7.6559 -16.8368 21.107
rtibia 11.0223
rfoot -10.7869 12.0856
rtoes -7.95139e-016
lfemur -9.95069 12.0653 -17.8231
ltibia 9.83917
lfoot -2.32237 -16.7139
ltoes -1.59028e-015
671
root -18.8402 16.6284 5.05765 -153.764 85.8055 -163.81
lowerback -13.5388 -1.64304 -0.10612
upperback -3.99278 -1.95171 -0.575828
thorax 3.36645 -0.89069 -0.851398
lowerneck -1.83119 1.63883 8.56026
upperneck 27.1399 3.92247 -5.72612
head 9.03075 2.56653 -3.06206
rclavicle 2.1593e-014 7.95139e-016
rhumerus -42.5864 -21.9077 -79.5795
rradius 18.4849
rwrist 28.9552
rhand -35.7516 2.88633
rfingers 7.12502
rthumb -8.87009 -26.9072
lclavicle 2.1593e-014 7.95139e-016
lhumerus -42.3152 16.2558 80.311
lradius 23.9378
lwrist -39.9408
lhand -32.9654 3.55939
lfingers 7.12502
lthumb -6.18081 33.4492
rfemur -7.641 -16.8082 21.0771
rtibia 11.0268
rfoot -10.7801 12.0461
rtoes 9.30312e-014
lfemur -9.93143 12.0547 -17.8416
ltibia 9.82217
lfoot -2.31872 -16.7216
ltoes 1.90833e-014
